# xmcd
#
# Track frame offsets:
#	182
#	12032
#	25915
#	41257
#	53605
#	69577
#	80535
#	93457
#	106872
#	122015
#
# Disc length: 1855
#
# Revision: 2
# Processed by: cddbd v1.5.1PL0 Copyright (c) Steve Scherf et al.
# Submitted via: EasyCDDAExtractor 5.1.0
# Normalized: r1:DSETVAR1
#
DISCID=6f073d0a
DTITLE=Various Artist - The Ties That Bind
DYEAR=1994
DGENRE=Country
TTITLE0=Don Williams - The Ties That Bind
TTITLE1=Charlie Rich - Since I Fell For You
TTITLE2=Lee Greenwood - I Don't Mind The Thorns (If You're The Rose)
TTITLE3=Tanya Tucker - Strong Enough To Bend
TTITLE4=Willie Nelson - Let It Be Me
TTITLE5=The Everly Brothers - Devoted To You
TTITLE6=Michael Martin Murphey - What's Forever For
TTITLE7=Bobby Helms - My Special Angel
TTITLE8=Ronnie McDowell - When A Man Loves A Woman
TTITLE9=Ray Price - You're The Best Thing That Ever Happened To Me
EXTD=
EXTT0=
EXTT1=
EXTT2=
EXTT3=
EXTT4=
EXTT5=
EXTT6=
EXTT7=
EXTT8=
EXTT9=
PLAYORDER=
